<svg width="140" height="140" viewBox="0 0 140 140" fill="none" xmlns="http://www.w3.org/2000/svg">
<g filter="url(#filter0_f)">
<path d="M29.4799 111.244C33.345 110.701 36.6355 108.481 35.3011 103.842C33.2912 96.8556 24.6658 98.9914 24.0232 96.758C23.8173 96.0422 24.3593 95.5787 25.746 95.3838C27.6933 95.1102 29.7285 95.5689 31.7575 96.3264L30.2007 90.9148C28.1373 90.2515 26.3286 89.9397 23.8502 90.288C19.7491 90.8644 16.9293 93.2268 18.2144 97.6935C20.1996 104.594 28.674 102.36 29.3083 104.565C29.5389 105.367 28.8199 105.855 27.3447 106.062C25.3974 106.336 22.8311 105.952 20.9956 105.227L22.6183 110.868C25.0062 111.485 27.0901 111.58 29.4799 111.244Z" fill="#FEF4DC"/>
<path d="M38.7433 109.495L51.4596 107.708L50.0263 102.726L43.0043 103.713L42.23 101.021L48.4259 100.15L47.0503 95.3688L40.8544 96.2395L40.0883 93.5767L46.9333 92.6147L45.5164 87.6899L32.9772 89.4521L38.7433 109.495Z" fill="#FEF4DC"/>
<path d="M62.3564 106.623C63.9201 106.404 65.1359 105.935 66.2302 105.364L64.6404 99.8378C63.7101 100.445 62.604 100.869 61.4534 101.03C58.857 101.395 56.6715 100.094 55.7324 96.8297C54.8064 93.5042 56.1626 91.4963 58.818 91.1231C60.1162 90.9407 61.1557 91.0329 62.0299 91.2973L60.4813 85.9144C59.0513 85.6387 57.6413 85.539 56.3431 85.7214C51.0323 86.4678 47.8086 90.734 49.7725 97.6673C51.8154 104.768 57.2226 107.345 62.3564 106.623Z" fill="#FEF4DC"/>
<path d="M76.1917 104.679C82.2401 103.829 83.5206 99.2101 81.7413 93.0254C79.962 86.8408 76.2268 82.9269 70.1785 83.777C64.1301 84.627 62.8496 89.2458 64.6289 95.4304C66.4082 101.615 70.1434 105.529 76.1917 104.679ZM74.6019 99.1528C72.8317 99.4016 71.5772 98.0288 70.5887 94.5928C69.6003 91.1569 69.998 89.5519 71.7683 89.3031C73.5385 89.0543 74.793 90.4271 75.7815 93.8631C76.77 97.299 76.3722 98.904 74.6019 99.1528Z" fill="#FEF4DC"/>
<path d="M86.5724 102.773L92.2667 101.973L90.751 96.7044C90.2485 94.9578 89.602 93.3507 88.7784 91.7683L97.3414 101.26L102.416 100.546L96.65 80.5035L90.9556 81.3038L92.4713 86.5722C92.9656 88.2902 93.6204 89.926 94.4439 91.5083L85.8809 82.017L80.8062 82.7302L86.5724 102.773Z" fill="#FEF4DC"/>
<path d="M106.416 79.131L99.2463 80.1386L105.012 100.182L112.182 99.174C118.673 98.2617 119.727 93.4961 118.121 87.9127C116.514 82.3293 112.907 78.2188 106.416 79.131ZM107.932 84.3994C109.849 84.1299 111.38 85.0766 112.426 88.7129C113.472 92.3493 112.584 93.636 110.666 93.9055L109.191 94.1129L106.456 84.6068L107.932 84.3994Z" fill="#FEF4DC"/>
<path fill-rule="evenodd" clip-rule="evenodd" d="M27.5221 98.1721C28.5959 98.3744 29.794 98.6229 30.9355 99.0851C31.3074 99.2357 31.6734 99.409 32.027 99.6108C32.2174 99.7194 32.4042 99.8363 32.5865 99.9623C33.7742 100.783 34.7692 101.993 35.3011 103.842C35.9047 105.94 35.562 107.544 34.6479 108.721C33.5411 110.146 31.5967 110.946 29.4799 111.244C27.0901 111.58 25.0062 111.485 22.6183 110.868L20.9956 105.227C22.1873 105.698 23.6871 106.025 25.1256 106.121C25.4645 106.144 25.8001 106.154 26.1275 106.15C26.5504 106.145 26.9597 106.117 27.3447 106.062C28.8199 105.855 29.5389 105.367 29.3083 104.565C29.0952 103.825 27.9979 103.585 26.559 103.331C26.4507 103.312 26.3405 103.293 26.2286 103.274C26.0853 103.249 25.9392 103.224 25.7907 103.197C24.5923 102.985 23.2435 102.71 22.0001 102.132C21.6762 101.982 21.3595 101.811 21.0544 101.615C19.8127 100.816 18.7644 99.6056 18.2144 97.6936C16.9293 93.2268 19.7491 90.8644 23.8502 90.288C26.0284 89.9819 27.6894 90.1857 29.4606 90.6898C29.7046 90.7593 29.9508 90.8345 30.2007 90.9148L31.7575 96.3264C31.5069 96.2329 31.2562 96.1438 31.0056 96.0602C29.8623 95.6787 28.7208 95.4091 27.5979 95.3289C27.5001 95.3219 27.4025 95.3163 27.305 95.3123C26.7804 95.2904 26.2601 95.3116 25.746 95.3838C24.3593 95.5787 23.8173 96.0422 24.0232 96.758C24.2227 97.4512 25.1913 97.7235 26.4924 97.9783C26.7053 98.02 26.927 98.0612 27.1558 98.1038C27.276 98.1261 27.3982 98.1488 27.5221 98.1721ZM38.7433 109.495L51.4596 107.708L50.0263 102.726L43.0043 103.713L42.23 101.021L48.4259 100.15L47.0502 95.3688L40.8544 96.2396L40.0883 93.5767L46.9333 92.6147L45.5164 87.6899L32.9772 89.4521L38.7433 109.495ZM29.7304 87.096C27.62 86.5361 25.4722 86.3018 22.811 86.6758C20.2376 87.0374 17.6286 88.0129 15.8971 90.0131C14.059 92.1365 13.5682 95.0051 14.4922 98.2167C15.0814 100.265 16.1283 101.94 17.5075 103.246C17.1116 103.976 17.0182 104.863 17.2734 105.75L18.8962 111.391C19.3068 112.818 20.5453 113.99 22.0563 114.381C25.0286 115.15 27.6589 115.258 30.5191 114.856C32.6506 114.557 34.9475 113.815 36.704 112.323C37.5911 112.946 38.6974 113.26 39.7825 113.107L52.4988 111.32C53.8383 111.132 54.815 110.28 55.1742 109.158C57.884 110.327 60.751 110.607 63.3956 110.236C65.4637 109.945 67.0639 109.319 68.4165 108.613C68.9923 108.313 69.4351 107.869 69.7209 107.34C72.0115 108.347 74.5599 108.667 77.2309 108.291C80.0708 107.892 82.3485 106.806 83.9185 105.084C84.8716 106.041 86.2581 106.576 87.6116 106.385L93.3059 105.585C94.2864 105.447 95.0725 104.954 95.5643 104.259C96.419 104.777 97.4238 105.006 98.3806 104.872L103.455 104.159C103.912 104.095 104.326 103.953 104.689 103.75C105.135 103.84 105.595 103.858 106.052 103.794L113.221 102.786C117.443 102.193 120.407 100.212 121.79 97.0408C123.087 94.069 122.761 90.5794 121.843 87.3896C120.925 84.1997 119.296 80.8932 116.457 78.5026C113.427 75.9514 109.598 74.9255 105.377 75.5188L98.2071 76.5264C97.7505 76.5906 97.3361 76.7318 96.9739 76.9346C96.5277 76.8454 96.0673 76.8271 95.6107 76.8913L89.9164 77.6916C88.9359 77.8294 88.1498 78.3227 87.658 79.0175C86.8033 78.4996 85.7985 78.2703 84.8417 78.4048L79.767 79.118C78.4135 79.3082 77.4304 80.1758 77.0806 81.3157C74.6804 80.1519 71.9792 79.7656 69.1392 80.1648C66.4105 80.5483 64.2008 81.5659 62.6392 83.1725C62.0968 82.7647 61.459 82.4724 60.7767 82.3409C59.0383 82.0057 57.1536 81.8492 55.3039 82.1092C52.5363 82.4981 50.0721 83.6276 48.2784 85.4912C47.324 84.4642 45.8829 83.8801 44.4772 84.0776L31.938 85.8399C30.9906 85.9731 30.2247 86.438 29.7304 87.096ZM50.031 89.9211C49.6834 90.6274 49.4367 91.4155 49.3043 92.2815C49.2852 92.4066 49.2684 92.5334 49.2541 92.6617C49.171 93.4069 49.1698 94.2066 49.2584 95.0584C49.2815 95.2806 49.3107 95.5062 49.3461 95.7354C49.4418 96.354 49.583 96.9983 49.7725 97.6673C49.9207 98.1823 50.0866 98.6736 50.2687 99.1414C50.3631 99.3838 50.4619 99.6199 50.5648 99.8499C50.9505 100.712 51.3951 101.486 51.8882 102.177C51.9511 102.265 52.0147 102.352 52.079 102.437C52.7987 103.391 53.6143 104.176 54.4965 104.803C56.8311 106.46 59.6322 107.006 62.3563 106.623C63.9201 106.404 65.1359 105.935 66.2302 105.364L64.6404 99.8378C64.0872 100.199 63.4719 100.495 62.822 100.71C62.379 100.856 61.9198 100.965 61.4534 101.03C61.342 101.046 61.2315 101.059 61.1217 101.068C58.6719 101.28 56.6312 99.9539 55.7324 96.8297C54.888 93.7975 55.9412 91.8607 58.1465 91.2598C58.3598 91.2017 58.5838 91.1561 58.818 91.1232C59.254 91.0619 59.6607 91.0316 60.0419 91.0284C60.7957 91.0221 61.4493 91.1217 62.0299 91.2974L60.4813 85.9144C59.0513 85.6387 57.6413 85.539 56.3431 85.7214C53.4565 86.1271 51.1866 87.5726 50.031 89.9211ZM60.573 94.6781C60.3776 94.6796 60.1412 94.6955 59.8572 94.7354C59.6138 94.7696 59.4934 94.8277 59.4469 94.8557C59.4072 94.8796 59.3945 94.8962 59.3829 94.9165C59.3674 94.9434 59.1774 95.3004 59.4591 96.3224C59.6681 97.0418 59.8925 97.339 59.9757 97.43C60.0356 97.4394 60.1771 97.4516 60.4142 97.4183C60.7048 97.3774 61.0031 97.3014 61.2952 97.1932C61.1553 96.7821 61.0261 96.3684 60.9067 95.9536C60.7848 95.5296 60.673 95.1041 60.573 94.6781ZM64.8819 96.2542C65.2822 97.4763 65.7649 98.5986 66.3332 99.5999C67.1876 101.105 68.2353 102.337 69.4868 103.222C71.2889 104.498 73.5136 105.055 76.1917 104.679C79.3934 104.229 81.2591 102.723 82.0422 100.488C82.7384 98.5002 82.5787 95.9363 81.7413 93.0255C80.9039 90.1146 79.6332 87.7068 77.892 86.062C75.9337 84.2119 73.3802 83.327 70.1785 83.777C67.4033 84.167 65.6319 85.3504 64.6992 87.1145C64.1183 88.2134 63.8628 89.5375 63.8928 91.0355C63.9141 92.096 64.0785 93.2436 64.3719 94.4602C64.4488 94.779 64.5345 95.1025 64.6289 95.4305C64.7092 95.7097 64.7936 95.9844 64.8819 96.2542ZM86.5724 102.773L92.2667 101.973L90.751 96.7044C90.2485 94.9578 89.602 93.3507 88.7784 91.7683L97.3414 101.26L102.416 100.546L96.6499 80.5035L90.9556 81.3038L92.4713 86.5722C92.9656 88.2902 93.6203 89.926 94.4439 91.5083L85.8809 82.017L80.8062 82.7302L86.5724 102.773ZM99.2463 80.1386L105.012 100.182L112.182 99.174C118.673 98.2617 119.727 93.4961 118.121 87.9127C116.514 82.3293 112.907 78.2188 106.416 79.131L99.2463 80.1386ZM112.636 92.6244C112.296 93.3986 111.604 93.7737 110.666 93.9055L109.191 94.1129L106.456 84.6068L107.932 84.3994C108.869 84.2676 109.715 84.4267 110.456 85.049C111.231 85.6992 111.892 86.855 112.426 88.713C112.961 90.5709 112.99 91.8155 112.636 92.6244ZM70.5887 94.5929C71.5772 98.0288 72.8317 99.4016 74.6019 99.1528C76.3722 98.904 76.7699 97.299 75.7815 93.8631C74.793 90.4271 73.5385 89.0543 71.7683 89.3031C69.998 89.5519 69.6002 91.1569 70.5887 94.5929Z" fill="#121212"/>
<path d="M29.3529 134.219C30.6898 134.031 31.8017 133.646 32.7888 133.151L32.8382 127.802C31.9771 128.305 30.9912 128.672 30.0327 128.807C27.9392 129.101 26.5377 128.103 26.5622 125.454C26.5867 122.805 28.1386 121.162 30.2826 120.861C31.3924 120.705 32.1977 120.795 32.775 121.019L32.8236 115.772C31.7172 115.546 30.5843 115.476 29.4745 115.632C24.8837 116.278 21.0705 120.019 21.013 126.233C20.9541 132.601 24.8883 134.846 29.3529 134.219Z" fill="#FEF4DC"/>
<path d="M47.9276 113.421L42.6306 114.165L42.5717 120.533L39.7971 120.923L39.856 114.555L34.559 115.299L34.3941 133.129L39.6911 132.384L39.75 126.017L42.5246 125.627L42.4657 131.994L47.7627 131.25L47.9276 113.421Z" fill="#FEF4DC"/>
<path d="M48.6039 131.132L54.1531 130.352L54.6505 128.323L58.989 127.714L59.4501 129.607L64.9993 128.828L59.615 111.778L54.3181 112.522L48.6039 131.132ZM55.6995 123.851L56.1446 122.034C56.4586 120.769 56.7233 119.383 56.9147 117.754C57.0764 119.334 57.3162 120.648 57.6076 121.828L58.0201 123.525L55.6995 123.851Z" fill="#FEF4DC"/>
<path d="M65.8252 128.711L71.1222 127.967L71.1599 123.892C71.1735 122.414 71.0099 121.038 70.6954 119.633L75.0318 127.418L79.6982 126.762L79.8632 108.932L74.5662 109.677L74.5285 113.752C74.5151 115.204 74.6784 116.605 74.9929 118.011L70.6565 110.226L65.9901 110.882L65.8252 128.711Z" fill="#FEF4DC"/>
<path d="M89.5794 125.755C90.9163 125.567 92.0283 125.181 93.0153 124.687L93.0648 119.338C92.2036 119.84 91.2178 120.208 90.2593 120.343C88.1657 120.637 86.7642 119.638 86.7887 116.989C86.8132 114.34 88.3651 112.698 90.5091 112.396C91.619 112.24 92.4242 112.331 93.0015 112.555L93.0501 107.308C91.9438 107.082 90.8108 107.012 89.701 107.168C85.1103 107.813 81.297 111.554 81.2395 117.769C81.1806 124.137 85.1148 126.382 89.5794 125.755Z" fill="#FEF4DC"/>
<path d="M94.6206 124.665L105.719 123.105L105.763 118.316L99.9619 119.132L99.9791 117.272L105.125 116.549L105.167 111.964L100.021 112.688L100.039 110.828L105.689 110.034L105.733 105.297L94.7855 106.835L94.6206 124.665Z" fill="#FEF4DC"/>
<path d="M113.051 122.456C116.431 121.981 119.775 120.036 119.814 115.807C119.872 109.491 112.424 111.326 112.439 109.645C112.444 109.187 112.85 108.875 113.934 108.723C115.624 108.485 117.232 108.946 118.737 109.625L118.786 104.378C117.23 103.783 115.796 103.501 113.602 103.809C109.97 104.32 107.053 106.408 107.015 110.509C106.958 116.724 114.281 114.83 114.266 116.434C114.261 116.969 113.654 117.284 112.518 117.443C110.879 117.674 108.766 117.309 107.462 116.653L107.412 122.129C109.271 122.656 111.008 122.743 113.051 122.456Z" fill="#FEF4DC"/>
<path d="M121.464 114.278L126.004 113.64L126.612 102.362L121.063 103.142L121.464 114.278ZM123.669 120.964C125.031 120.772 126.376 119.769 126.393 117.859C126.411 116 125.081 115.372 123.719 115.564C122.382 115.752 121.013 116.758 120.996 118.618C120.978 120.528 122.332 121.151 123.669 120.964Z" fill="#FEF4DC"/>
<path fill-rule="evenodd" clip-rule="evenodd" d="M30.6809 133.952C31.2084 133.812 31.6986 133.64 32.1603 133.443C32.3757 133.351 32.5849 133.253 32.7887 133.151L32.8382 127.802C32.1815 128.185 31.4523 128.49 30.718 128.673C30.4894 128.73 30.2603 128.775 30.0327 128.807C29.708 128.853 29.3999 128.867 29.1112 128.849C27.5387 128.752 26.5415 127.692 26.5622 125.454C26.5817 123.343 27.5706 121.872 29.0559 121.208C29.4351 121.039 29.8466 120.922 30.2826 120.861C30.4596 120.836 30.6289 120.817 30.7908 120.804C31.6435 120.737 32.2898 120.831 32.775 121.019L32.8236 115.772C32.5801 115.723 32.3353 115.68 32.0898 115.646C31.6775 115.59 31.263 115.556 30.8489 115.55C30.3892 115.542 29.9299 115.568 29.4745 115.632C24.8837 116.278 21.0705 120.019 21.013 126.233C20.9541 132.601 24.8883 134.846 29.3529 134.219C29.8218 134.153 30.2631 134.063 30.6809 133.952ZM33.3667 111.921C32.1588 111.733 30.8569 111.684 29.5092 111.874C26.3442 112.319 23.2308 113.875 20.8986 116.6C18.5592 119.334 17.3268 122.864 17.2908 126.757C17.2538 130.758 18.4914 133.929 20.8877 135.926C23.2441 137.89 26.3345 138.397 29.3181 137.977C30.776 137.773 32.0695 137.384 33.2439 136.872C33.5955 136.934 33.9701 136.942 34.3593 136.887L39.6563 136.143C40.1467 136.074 40.6158 135.912 41.0461 135.678C41.4732 135.792 41.9405 135.822 42.4309 135.753L47.7279 135.009C47.8706 134.988 48.0114 134.961 48.1501 134.925C48.2883 134.922 48.4282 134.91 48.5691 134.89L54.1183 134.11C55.1411 133.967 56.0889 133.413 56.7772 132.621C57.4525 133.222 58.3926 133.51 59.4153 133.366L64.9645 132.586C65.1029 132.567 65.2403 132.54 65.3764 132.505C65.5122 132.501 65.6504 132.49 65.7904 132.47L71.0874 131.726C71.8046 131.625 72.4764 131.326 73.0479 130.891C73.6217 131.169 74.2938 131.275 74.9971 131.176L79.6635 130.52C80.9121 130.345 82.0228 129.569 82.7069 128.521C84.7785 129.599 87.1947 129.843 89.5447 129.513C91.0026 129.308 92.296 128.919 93.4704 128.408C93.822 128.47 94.1967 128.478 94.5858 128.423L105.684 126.863C106.33 126.773 106.938 126.521 107.47 126.155C109.274 126.486 111.061 126.489 113.017 126.214C114.988 125.937 117.293 125.228 119.298 123.713C119.32 123.73 119.343 123.747 119.366 123.764C120.67 124.726 122.263 124.915 123.634 124.722C125.007 124.529 126.617 123.896 127.95 122.55C129.37 121.117 130.098 119.253 130.116 117.336C130.125 116.273 129.911 115.295 129.481 114.461C129.616 114.085 129.699 113.691 129.721 113.288L130.329 102.01C130.385 100.978 130.023 100.031 129.327 99.3873C128.632 98.7439 127.664 98.4607 126.647 98.6036L121.098 99.3835C120.356 99.4877 119.636 99.812 119.026 100.306C117.488 99.8931 115.811 99.745 113.637 100.051C111.831 100.304 109.876 100.899 108.12 102.059C107.483 101.616 106.663 101.412 105.767 101.538L94.8203 103.077C94.3911 103.137 93.9781 103.268 93.5932 103.457C92.3853 103.269 91.0834 103.22 89.7357 103.41C87.3361 103.747 84.9662 104.723 82.9439 106.363C82.281 105.479 81.1665 104.995 79.8979 105.174L74.6009 105.918C73.8837 106.019 73.2119 106.318 72.6404 106.753C72.0666 106.474 71.3946 106.369 70.6913 106.468L66.0249 107.123C64.6728 107.314 63.4823 108.208 62.8204 109.388C62.168 108.372 60.9746 107.833 59.6498 108.019L54.3528 108.764C53.0228 108.951 51.8122 109.833 51.1408 111.043C50.5007 110.038 49.3198 109.471 47.9623 109.662L42.6654 110.406C42.175 110.475 41.7059 110.637 41.2756 110.871C40.8484 110.757 40.3811 110.727 39.8908 110.796L34.5938 111.541C34.1645 111.601 33.7516 111.732 33.3667 111.921ZM48.6039 131.132L54.1531 130.352L54.6505 128.323L58.989 127.714L59.4501 129.607L64.9993 128.828L59.615 111.778L54.318 112.522L48.6039 131.132ZM57.6075 121.828C57.4579 121.222 57.3219 120.581 57.2031 119.886C57.0905 119.228 56.9934 118.522 56.9147 117.754C56.8216 118.547 56.7111 119.282 56.586 119.973C56.454 120.703 56.3058 121.384 56.1446 122.034L55.6995 123.851L58.0201 123.525L57.6075 121.828ZM47.9276 113.421L42.6306 114.165L42.5717 120.533L39.7971 120.923L39.856 114.555L34.559 115.299L34.3941 133.129L39.6911 132.384L39.75 126.017L42.5246 125.627L42.4657 131.994L47.7626 131.25L47.9276 113.421ZM30.7559 124.577L30.7532 124.867C30.5937 124.927 30.4355 124.974 30.2845 125.008C30.2842 124.984 30.2841 124.958 30.2844 124.93C30.2856 124.797 30.2953 124.692 30.3071 124.611C30.4969 124.587 30.6445 124.578 30.7559 124.577ZM65.8252 128.711L71.1222 127.967L71.1599 123.892C71.1735 122.414 71.0099 121.038 70.6954 119.633L75.0318 127.418L79.6982 126.762L79.8632 108.932L74.5662 109.677L74.5285 113.752C74.515 115.204 74.6784 116.605 74.9929 118.011L70.6565 110.226L65.9901 110.882L65.8252 128.711ZM83.5648 110.629C82.15 112.4 81.267 114.803 81.2395 117.769C81.2119 120.759 82.0648 122.841 83.4398 124.142C84.9927 125.612 87.2114 126.087 89.5794 125.755C90.0483 125.689 90.4896 125.598 90.9075 125.488C91.4349 125.348 91.9251 125.176 92.3868 124.978C92.6022 124.886 92.8114 124.789 93.0153 124.687L93.0647 119.338C92.408 119.721 91.6788 120.026 90.9445 120.209C90.7159 120.266 90.4868 120.311 90.2593 120.343C89.9345 120.388 89.6264 120.403 89.3377 120.385C87.7652 120.287 86.768 119.227 86.7887 116.989C86.8083 114.879 87.7971 113.407 89.2825 112.744C89.6616 112.574 90.0731 112.458 90.5091 112.396C90.6861 112.372 90.8554 112.353 91.0173 112.34C91.8701 112.273 92.5163 112.367 93.0015 112.555L93.0501 107.308C92.8066 107.258 92.5618 107.216 92.3163 107.182C91.904 107.125 91.4895 107.092 91.0754 107.085C90.6157 107.078 90.1564 107.104 89.701 107.168C87.3014 107.505 85.1142 108.689 83.5648 110.629ZM90.9824 116.113C90.8711 116.114 90.7235 116.122 90.5336 116.147C90.5218 116.227 90.5121 116.333 90.5109 116.466C90.5107 116.493 90.5107 116.519 90.511 116.544C90.662 116.51 90.8202 116.462 90.9797 116.402L90.9824 116.113ZM94.6206 124.664L105.719 123.105L105.763 118.316L99.9619 119.132L99.9791 117.272L105.125 116.549L105.167 111.964L100.021 112.688L100.039 110.828L105.689 110.034L105.733 105.297L94.7855 106.835L94.6206 124.664ZM107.283 108.558C107.169 108.96 107.089 109.388 107.048 109.843C107.029 110.059 107.017 110.281 107.015 110.509C107.011 110.941 107.043 111.334 107.106 111.692C107.185 112.148 107.315 112.547 107.484 112.896C107.503 112.935 107.523 112.974 107.543 113.012C107.856 113.608 108.29 114.053 108.787 114.393C108.811 114.41 108.836 114.427 108.862 114.443C109.51 114.868 110.259 115.12 110.99 115.294C111.46 115.407 111.922 115.487 112.345 115.56C112.409 115.571 112.473 115.582 112.536 115.593C113.537 115.769 114.271 115.926 114.266 116.434C114.261 116.969 113.654 117.284 112.518 117.443C112.094 117.503 111.638 117.523 111.172 117.508C110.975 117.502 110.776 117.489 110.578 117.471C110.201 117.436 109.824 117.381 109.459 117.307C109.193 117.253 108.933 117.19 108.684 117.119C108.234 116.989 107.818 116.832 107.462 116.653L107.412 122.129C108.098 122.324 108.767 122.458 109.442 122.536C110.595 122.669 111.762 122.637 113.051 122.456C114.634 122.233 116.208 121.689 117.439 120.738C118.087 120.239 118.639 119.627 119.047 118.891C119.239 118.546 119.399 118.174 119.523 117.772C119.705 117.181 119.807 116.527 119.814 115.807C119.818 115.368 119.786 114.967 119.722 114.603C119.677 114.344 119.616 114.102 119.541 113.878C119.466 113.655 119.378 113.449 119.278 113.258C118.886 112.509 118.312 111.988 117.659 111.612C117.647 111.605 117.634 111.598 117.622 111.591C117.009 111.244 116.329 111.023 115.67 110.861C115.239 110.755 114.817 110.674 114.427 110.599C114.25 110.565 114.079 110.533 113.918 110.5C113.046 110.321 112.435 110.128 112.439 109.645C112.444 109.187 112.85 108.875 113.934 108.723C114.303 108.671 114.668 108.652 115.029 108.662C115.406 108.672 115.779 108.713 116.148 108.78C116.618 108.864 117.08 108.99 117.534 109.145C117.942 109.284 118.343 109.447 118.737 109.625L118.786 104.378C118.303 104.193 117.832 104.039 117.346 103.923C116.267 103.665 115.115 103.596 113.602 103.809C112.023 104.031 110.58 104.551 109.449 105.405C108.429 106.175 107.663 107.218 107.283 108.558ZM121.464 114.278L126.004 113.64L126.612 102.362L121.063 103.142L121.464 114.278ZM123.529 115.596C122.716 115.758 121.916 116.222 121.439 116.997C121.249 117.306 121.11 117.664 121.042 118.071C121.013 118.244 120.997 118.426 120.996 118.618C120.986 119.697 121.413 120.365 122.029 120.709C122.503 120.973 123.088 121.045 123.669 120.964C125.031 120.772 126.376 119.769 126.393 117.859C126.395 117.668 126.383 117.49 126.357 117.324C126.297 116.93 126.165 116.608 125.979 116.35C125.483 115.663 124.608 115.439 123.719 115.564C123.656 115.573 123.592 115.583 123.529 115.596Z" fill="#121212"/>
<path d="M15.1472 86.2502L32.963 83.7464L32.9779 66.5945C32.9829 60.9082 32.4337 55.6727 31.3306 50.515L48.8402 81.515L64.7175 79.2836L64.7745 14.0317L46.9587 16.5355L46.9437 33.6875C46.9388 39.2805 47.488 44.6092 48.5911 49.7669L31.0814 18.7669L15.2041 20.9984L15.1472 86.2502Z" fill="#FF5E19"/>
<path d="M92.04 76.8417C110.964 74.1822 118.822 59.1901 118.84 39.0553C118.857 18.9204 111.023 6.13381 92.0994 8.79334C73.1759 11.4529 65.3174 26.4449 65.2999 46.5798C65.2823 66.7147 73.1165 79.5013 92.04 76.8417ZM92.0557 58.8509C86.5171 59.6293 83.9367 55.1452 83.9464 43.9592C83.9562 32.7731 86.5451 27.5626 92.0837 26.7842C97.6223 26.0058 100.203 30.4898 100.193 41.6759C100.183 52.8619 97.5943 58.0725 92.0557 58.8509Z" fill="#FF5E19"/>
<path fill-rule="evenodd" clip-rule="evenodd" d="M15.1439 90.009C13.0882 90.2979 11.4232 88.8492 11.425 86.7733L11.4819 21.5215C11.4837 19.4456 13.1517 17.5285 15.2074 17.2396L31.0847 15.0082C32.4636 14.8144 33.7288 15.4063 34.3728 16.5463L43.2233 32.2157L43.2365 17.0586C43.2383 14.9827 44.9063 13.0657 46.962 12.7768L64.7778 10.2729C66.8335 9.98402 68.4985 11.4327 68.4967 13.5086L68.4914 19.5145C68.5291 19.4564 68.5669 19.3984 68.6049 19.3406C73.7337 11.5302 81.6227 6.50744 92.1027 5.03458C102.583 3.56172 110.465 6.36799 115.581 12.7384C120.555 18.9314 122.571 28.0662 122.562 38.5322C122.553 48.9982 120.52 58.7018 115.535 66.2945C110.406 74.1048 102.517 79.1276 92.0367 80.6005C81.5568 82.0733 73.6746 79.2671 68.5581 72.8966C68.5202 72.8494 68.4825 72.8021 68.445 72.7545L68.4397 78.7605C68.4379 80.8363 66.77 82.7534 64.7143 83.0423L48.837 85.2737C47.4581 85.4675 46.1928 84.8756 45.5489 83.7356L36.6984 68.0662L36.6851 83.2233C36.6833 85.2992 35.0154 87.2162 32.9597 87.5051L15.1439 90.009ZM32.8069 61.1766C32.5671 57.5109 32.0749 53.9952 31.3306 50.515L48.8403 81.515L64.7175 79.2836L64.7745 14.0317L46.9587 16.5355L46.9437 33.6875C46.9421 35.5226 47.0002 37.3293 47.1179 39.1109C47.3588 42.7589 47.8499 46.3015 48.5911 49.7669L31.0814 18.7669L15.2041 20.9983L15.1472 86.2502L32.963 83.7464L32.9779 66.5945C32.9795 64.7451 32.9225 62.9434 32.8069 61.1766ZM68.4517 65.0151C72.317 73.8928 79.8945 78.5487 92.04 76.8417C110.964 74.1822 118.822 59.1901 118.84 39.0553C118.857 18.9204 111.023 6.1338 92.0994 8.79333C79.9539 10.5003 72.3664 17.2874 68.4847 27.2539C66.3184 32.8158 65.3062 39.3679 65.2999 46.5798C65.2936 53.7916 66.2946 60.0608 68.4517 65.0151ZM90.3922 54.9444C90.7253 55.1029 91.2254 55.2093 92.059 55.0921C92.8927 54.9749 93.393 54.728 93.7264 54.4758C94.0612 54.2226 94.4746 53.7773 94.8939 52.9023C95.8086 50.9933 96.4661 47.6471 96.4708 42.199C96.4756 36.7509 95.8238 33.5887 94.9122 31.9364C94.4943 31.179 94.0816 30.8498 93.7472 30.6907C93.4141 30.5322 92.9141 30.4258 92.0804 30.543C91.2468 30.6601 90.7464 30.9071 90.413 31.1593C90.0782 31.4125 89.6648 31.8577 89.2455 32.7328C88.3308 34.6418 87.6734 37.988 87.6686 43.4361C87.6639 48.8841 88.3156 52.0464 89.2272 53.6987C89.6451 54.4561 90.0578 54.7852 90.3922 54.9444ZM83.9465 43.9592C83.9367 55.1452 86.5171 59.6292 92.0557 58.8508C97.5943 58.0724 100.183 52.8619 100.193 41.6759C100.203 30.4898 97.6223 26.0058 92.0837 26.7842C86.5451 27.5626 83.9562 32.7731 83.9465 43.9592Z" fill="#121212"/>
</g>
<path fill-rule="evenodd" clip-rule="evenodd" d="M105.009 18.9109L105.009 18.9343C110.357 18.4358 114.645 22.1666 114.891 27.5325L114.914 27.5293C115.178 21.9261 119.733 16.8533 125.309 16.0696C125.475 16.0463 125.64 16.027 125.804 16.0117L125.804 15.9883C125.64 16.0191 125.475 16.0463 125.309 16.0696C119.567 16.8766 114.916 12.8299 114.921 7.03091C114.921 6.86329 114.925 6.69605 114.933 6.52928L114.909 6.53253C114.917 6.69714 114.921 6.86329 114.921 7.03091C114.916 12.6623 110.522 17.8752 105.009 18.9109Z" fill="#FEF4DC"/>
<path fill-rule="evenodd" clip-rule="evenodd" d="M104.867 21.9506C103.282 22.0983 102.037 20.9541 102.038 19.3518L102.038 19.3284C102.039 17.7262 103.287 16.2315 104.872 15.9338C108.808 15.1944 111.946 11.47 111.95 7.44842C111.95 7.32767 111.947 7.20821 111.942 7.09007C111.904 6.27629 112.201 5.43559 112.762 4.76354C113.323 4.09148 114.1 3.64665 114.912 3.53253L114.935 3.52927C115.747 3.41515 116.524 3.64167 117.084 4.15615C117.644 4.67063 117.939 5.42822 117.9 6.2527C117.894 6.37239 117.892 6.49263 117.891 6.61338C117.888 10.7555 121.21 13.6461 125.312 13.0696C125.431 13.0528 125.55 13.0333 125.668 13.0111C126.479 12.8587 127.27 13.0461 127.857 13.5296C128.444 14.0132 128.776 14.7507 128.775 15.5708L128.775 15.5942C128.774 16.4142 128.441 17.2452 127.853 17.8939C127.265 18.5425 126.474 18.9523 125.663 19.0279C125.545 19.0389 125.426 19.0528 125.307 19.0696C121.324 19.6293 118.07 23.2529 117.882 27.2527C117.806 28.8636 116.498 30.3063 114.912 30.5293L114.889 30.5325C113.302 30.7555 111.996 29.6801 111.923 28.0901C111.748 24.2605 108.684 21.5948 104.867 21.9506ZM119.609 18.5862C121.118 17.3751 122.898 16.5108 124.814 16.1509C124.978 16.12 125.143 16.0929 125.309 16.0696C125.475 16.0462 125.64 16.027 125.804 16.0117L125.804 15.9883C125.64 16.0191 125.475 16.0462 125.309 16.0696C125.143 16.0929 124.978 16.1122 124.814 16.1275C122.899 16.306 121.119 15.942 119.612 15.1546C118.419 14.531 117.397 13.6419 116.615 12.5465C115.627 11.1633 115.02 9.45116 114.932 7.52927C114.924 7.36466 114.92 7.19851 114.921 7.0309C114.921 6.86328 114.925 6.69604 114.933 6.52927L114.909 6.53253C114.917 6.69714 114.921 6.86328 114.921 7.0309C114.92 7.19851 114.916 7.36575 114.909 7.53252C114.817 9.47962 114.207 11.3627 113.217 13.024C112.432 14.3398 111.408 15.5166 110.213 16.4758C108.705 17.6865 106.925 18.5507 105.01 18.9107C105.009 18.9108 105.009 18.9109 105.009 18.9109L105.009 18.9343C105.009 18.9343 105.009 18.9343 105.01 18.9342C106.925 18.7559 108.704 19.1199 110.21 19.907C111.404 20.5306 112.426 21.4199 113.208 22.5157C114.196 23.8985 114.803 25.6101 114.891 27.5314C114.891 27.5318 114.891 27.5322 114.891 27.5325L114.914 27.5293C114.914 27.5289 114.914 27.5285 114.914 27.5282C115.006 25.5815 115.616 23.699 116.606 22.038C117.391 20.7221 118.415 19.5454 119.609 18.5862Z" fill="#121212"/>
<path fill-rule="evenodd" clip-rule="evenodd" d="M75.9948 60.448C75.8686 60.4717 75.7417 60.4926 75.6141 60.5105C71.1991 61.131 67.6232 58.0198 67.6271 53.5614C67.6273 53.4325 67.6304 53.304 67.6364 53.1757L67.6185 53.1782C67.6244 53.3049 67.6272 53.4328 67.6271 53.5619C67.6234 57.8914 64.2451 61.8992 60.0067 62.6954L60.0067 62.713C64.1186 62.3297 67.4153 65.198 67.6045 69.3234L67.6223 69.3209C67.8247 65.0131 71.3268 61.113 75.6141 60.5105C75.7417 60.4926 75.8686 60.4777 75.9948 60.466L75.9948 60.448Z" fill="#FEF4DC"/>
<path fill-rule="evenodd" clip-rule="evenodd" d="M78.0476 57.9893C78.6346 58.4729 78.9663 59.2105 78.9656 60.0305L78.9656 60.0485C78.9648 60.8685 78.6317 61.6995 78.0438 62.3482C77.4558 62.9968 76.6641 63.4066 75.853 63.4822C75.7732 63.4897 75.6927 63.4991 75.6115 63.5105C72.9183 63.889 70.7168 66.3398 70.5897 69.0443C70.514 70.6552 69.2063 72.0979 67.6197 72.3209L67.6018 72.3234C66.0152 72.5464 64.7097 71.471 64.6368 69.8809C64.5181 67.2919 62.4456 65.4887 59.865 65.7292C58.2801 65.8769 57.0345 64.7327 57.0359 63.1305L57.0359 63.1129C57.0373 61.5107 58.2852 60.016 59.8702 59.7183C62.5311 59.2184 64.6539 56.6991 64.6563 53.9794C64.6564 53.8973 64.6546 53.8161 64.6509 53.736C64.6135 52.9221 64.9099 52.0814 65.471 51.4093C66.0321 50.7372 66.8091 50.2924 67.6211 50.1782L67.639 50.1757C68.451 50.0616 69.2274 50.2881 69.7875 50.8026C70.3476 51.3171 70.6425 52.0747 70.6038 52.8992C70.6 52.9803 70.598 53.0619 70.5979 53.1439C70.5955 55.9454 72.8425 57.9004 75.6167 57.5105C75.6979 57.4991 75.7784 57.4858 75.8583 57.4708C76.6695 57.3184 77.4606 57.5058 78.0476 57.9893ZM70.6074 59.4341C71.8847 60.2932 73.4854 60.7179 75.2335 60.555C75.3596 60.5432 75.4865 60.5284 75.6141 60.5105C75.4865 60.5284 75.3596 60.5493 75.2335 60.573C73.4853 60.9014 71.8835 61.7762 70.6044 62.9945C70.1537 63.4238 69.743 63.8958 69.3802 64.4016C68.3507 65.8366 67.706 67.5437 67.6223 69.32C67.6223 69.3203 67.6223 69.3206 67.6223 69.3209L67.6045 69.3234C67.6044 69.3231 67.6044 69.3228 67.6044 69.3226C67.5238 67.5693 66.882 66.0431 65.8548 64.8972C65.4927 64.4933 65.0828 64.1366 64.6327 63.8339C63.3557 62.9749 61.7552 62.5502 60.0075 62.7129C60.0072 62.7129 60.007 62.7129 60.0067 62.713L60.0067 62.6954C60.007 62.6954 60.0073 62.6953 60.0075 62.6953C61.7554 62.3667 63.357 61.492 64.6359 60.2737C65.0866 59.8444 65.4972 59.3725 65.86 58.8667C66.8895 57.4316 67.5343 55.7245 67.6179 53.948C67.6239 53.8196 67.627 53.6909 67.6271 53.5618C67.627 53.6906 67.6299 53.8181 67.6357 53.9445C67.7161 55.6984 68.3582 57.225 69.3858 58.3712C69.7477 58.775 70.1575 59.1315 70.6074 59.4341ZM67.6364 53.1757C67.6303 53.3039 67.6272 53.4325 67.6271 53.5614C67.6272 53.4325 67.6243 53.3048 67.6185 53.1782L67.6364 53.1757ZM75.9947 60.466C75.8686 60.4777 75.7417 60.4926 75.6141 60.5105C75.7417 60.4926 75.8686 60.4717 75.9948 60.448L75.9947 60.466Z" fill="#121212"/>
<path fill-rule="evenodd" clip-rule="evenodd" d="M125.173 76.3733C125.093 76.3884 125.012 76.4016 124.931 76.4131C125.012 76.4016 125.093 76.3922 125.173 76.3847L125.173 76.3733ZM119.848 82.0169C119.977 79.2773 122.204 76.7969 124.93 76.4132C122.123 76.8072 119.849 74.8285 119.851 71.9931C119.851 71.9111 119.853 71.8294 119.857 71.7478L119.846 71.7494C119.849 71.83 119.851 71.9114 119.851 71.9936C119.849 74.7473 117.7 77.2965 115.004 77.803L115.004 77.8139C117.62 77.5702 119.716 79.3945 119.837 82.0185L119.848 82.0169Z" fill="#FEF4DC"/>
<path fill-rule="evenodd" clip-rule="evenodd" d="M124.932 73.4133C123.766 73.5763 122.821 72.7539 122.822 71.5756C122.822 71.5405 122.823 71.5057 122.825 71.4712C122.863 70.6468 122.568 69.8892 122.008 69.3747C121.448 68.8602 120.672 68.6337 119.86 68.7478L119.848 68.7494C119.036 68.8635 118.259 69.3084 117.698 69.9805C117.137 70.6526 116.841 71.4934 116.878 72.3072C116.88 72.3413 116.88 72.3759 116.88 72.4111C116.879 73.555 115.986 74.6157 114.868 74.8258C113.283 75.1236 112.035 76.6182 112.033 78.2205L112.033 78.2314C112.032 79.8337 113.278 80.9779 114.863 80.8302C115.947 80.7291 116.819 81.4884 116.869 82.576C116.942 84.1661 118.248 85.2415 119.834 85.0185L119.846 85.0169C121.432 84.7939 122.74 83.3512 122.816 81.7403C122.869 80.6042 123.795 79.5733 124.927 79.4133M119.845 72.2393C119.793 73.3594 119.389 74.4361 118.744 75.3438C118.504 75.6825 118.23 75.9976 117.928 76.2827C117.118 77.0471 116.107 77.5957 115.005 77.8028C115.005 77.8029 115.004 77.8029 115.004 77.8029L115.004 77.8139C115.004 77.8139 115.005 77.8139 115.005 77.8139C116.107 77.7113 117.117 77.9759 117.926 78.5128C118.227 78.713 118.501 78.9511 118.741 79.2222C119.384 79.9489 119.786 80.9124 119.837 82.0179C119.837 82.0181 119.837 82.0183 119.837 82.0185L119.848 82.0169C119.848 82.0167 119.848 82.0165 119.848 82.0163C119.901 80.8962 120.304 79.8195 120.949 78.9117C121.19 78.5731 121.464 78.258 121.766 77.973C121.87 77.8746 121.978 77.7798 122.088 77.6888C122.838 77.0729 123.729 76.6332 124.689 76.4528C124.769 76.4378 124.849 76.4246 124.93 76.4132C124.849 76.4245 124.769 76.4339 124.689 76.4414C123.729 76.5309 122.838 76.3415 122.09 75.9361C121.98 75.8763 121.872 75.8118 121.768 75.7428C121.467 75.5425 121.193 75.3043 120.953 75.0331C120.309 74.3063 119.907 73.3425 119.857 72.2368C119.853 72.1565 119.851 72.0754 119.851 71.9936M119.857 71.7478C119.853 71.8294 119.851 71.9111 119.851 71.9931C119.851 71.9111 119.849 71.8299 119.846 71.7494L119.857 71.7478ZM124.929 79.413C124.963 79.4082 124.998 79.4042 125.032 79.401C125.843 79.3254 126.634 78.9156 127.222 78.2669C127.81 77.6182 128.143 76.7872 128.144 75.9672L128.144 75.9558C128.145 75.1358 127.813 74.3982 127.226 73.9146C126.639 73.4311 125.848 73.2437 125.037 73.3961C125.003 73.4025 124.969 73.4082 124.934 73.413M125.173 76.3733C125.093 76.3884 125.012 76.4016 124.931 76.413C125.012 76.4016 125.093 76.3922 125.173 76.3847L125.173 76.3733ZM124.927 79.4133C124.928 79.4132 124.928 79.4131 124.929 79.413ZM119.851 71.9936C119.851 72.0757 119.849 72.1576 119.845 72.2393Z" fill="#121212"/>
<defs>
<filter id="filter0_f" x="11.0648" y="4.2904" width="119.63" height="134.184" filterUnits="userSpaceOnUse" color-interpolation-filters="sRGB">
<feFlood flood-opacity="0" result="BackgroundImageFix"/>
<feBlend mode="normal" in="SourceGraphic" in2="BackgroundImageFix" result="shape"/>
<feGaussianBlur stdDeviation="0.180119" result="effect1_foregroundBlur"/>
</filter>
</defs>
</svg>
